HIERARCHY
ROOT Hips
{
  OFFSET 0 0 0
  CHANNELS 6 Xposition Yposition Zposition Zrotation Yrotation Xrotation
  JOINT LeftThigh
  {
    OFFSET 8.409438 0 -5.917753
    CHANNELS 3 Zrotation Yrotation Xrotation
    JOINT LeftLeg
    {
      OFFSET 0 0 -42.358652
      CHANNELS 3 Zrotation Yrotation Xrotation
      JOINT LeftFoot
      {
        OFFSET 0 0 -39.357303
        CHANNELS 3 Zrotation Yrotation Xrotation
      }
    }
  }
  JOINT RightThigh
  {
    OFFSET -8.409438 0 -5.917753
    CHANNELS 3 Zrotation Yrotation Xrotation
    JOINT RightLeg
    {
      OFFSET 0 0 -42.358652
      CHANNELS 3 Zrotation Yrotation Xrotation
      JOINT RightFoot
      {
        OFFSET 0 0 -39.357303
        CHANNELS 3 Zrotation Yrotation Xrotation
      }
    }
  }
  JOINT SpineLow
  {
    OFFSET 0 0 4.719101
    CHANNELS 3 Zrotation Yrotation Xrotation
    JOINT SpineMid
    {
      OFFSET 0 0 12.899191
      CHANNELS 3 Zrotation Yrotation Xrotation
      JOINT Chest
      {
        OFFSET 0 0 12.899191
        CHANNELS 3 Zrotation Yrotation Xrotation
        JOINT LeftShoulder
        {
          OFFSET 7.550562 1.41573 9.438202
          CHANNELS 3 Zrotation Yrotation Xrotation
          JOINT LeftArm
          {
            OFFSET 9.155056 0 4.247191
            CHANNELS 3 Zrotation Yrotation Xrotation
            JOINT LeftForearm
            {
              OFFSET 0 0 25.771955
              CHANNELS 3 Zrotation Yrotation Xrotation
              JOINT LeftHand
              {
                OFFSET 0 0 25.197169
                CHANNELS 3 Zrotation Yrotation Xrotation
              }
            }
          }
        }
        JOINT RightShoulder
        {
          OFFSET -7.550562 1.41573 9.438202
          CHANNELS 3 Zrotation Yrotation Xrotation
          JOINT RightArm
          {
            OFFSET -9.155056 0 4.247191
            CHANNELS 3 Zrotation Yrotation Xrotation
            JOINT RightForearm
            {
              OFFSET 0 0 -25.771955
              CHANNELS 3 Zrotation Yrotation Xrotation
              JOINT RightHand
              {
                OFFSET 0 0 -25.197169
                CHANNELS 3 Zrotation Yrotation Xrotation
              }
            }
          }
        }
        JOINT Neck
        {
          OFFSET 0 0 15.101124
          CHANNELS 3 Zrotation Yrotation Xrotation
          JOINT Head
          {
            OFFSET 0 0 11.325843
            CHANNELS 3 Zrotation Yrotation Xrotation
            End Site
            {
              OFFSET 0 0 14.157303
            }
          }
        }
      }
    }
  }
}
MOTION
Frames: 9
Frame Time: 0.0
0.0  93.25843  0.0  -1.530195  -3.653466  -91.522098  12.884305  -14.862927  0.469675  -2.238078  -0.194409  10.353006  1.989047  -0.268912  0.904983  -19.004984  4.265895  -3.613179  -10.802461  4.401076  2.338537  1.66048  0.441876  0.39665  2.841129  -1.872303  0.734618  7.722805  -5.195493  1.788083  7.722806  -5.195493  1.788083  -9.503366  30.527111  -3.690516  171.008594  34.830723  -171.412749  4.810183  -4.501443  99.814969  66.660685  16.779924  2.384286  -1.299179  1.820923  26.62032  72.742591  47.132361  24.0522  -29.156209  14.221461  -69.941255  69.058176  -8.010414  27.760192  -16.277126  6.395522  0.926797  -12.204873  4.776001  0.86614  
0.0  93.25843  0.0  -1.470011  -2.867568  -91.47834  12.376614  -14.838578  0.320785  -2.375763  -0.202632  10.302686  1.973904  -0.258443  0.969927  -19.450996  4.464631  -3.505464  -11.207068  4.223202  2.180032  1.645983  0.4141  0.405034  2.925163  -1.865982  0.755901  7.951335  -5.182854  1.840319  7.951335  -5.182853  1.840319  -9.393788  30.384987  -3.696124  171.641951  34.707348  -172.349671  4.025202  -2.936205  101.854756  64.961713  15.973742  1.936131  -1.209985  1.640747  26.910161  71.31724  48.143073  23.162842  -28.195237  15.276363  -66.896942  69.222788  -9.572937  26.125816  -16.847165  6.378303  0.810721  -12.630776  4.765692  0.784671  
0.0  93.25843  0.0  -1.504248  -2.254513  -91.458371  12.101352  -14.912924  0.265849  -2.457155  -0.196454  10.261472  1.905554  -0.271674  0.967642  -19.784253  4.554346  -3.37042  -11.45762  4.104217  2.067864  1.644596  0.384764  0.421423  2.995983  -1.870143  0.767145  8.144314  -5.197375  1.864919  8.144314  -5.197375  1.864919  -9.123695  30.262871  -3.620881  172.424627  34.697287  -173.24827  3.569667  -1.474384  103.823345  62.717894  15.122997  1.115598  -1.196109  1.500005  27.084144  70.743246  49.018657  22.637163  -26.990625  17.023487  -63.344417  68.903222  -11.455665  25.161407  -17.386427  6.317462  0.711174  -13.033941  4.72241  0.713983  
0.0  93.25843  0.0  -1.483829  -1.423247  -91.356485  11.557875  -14.928656  0.043356  -2.456232  -0.182021  10.352778  1.844475  -0.277681  0.962809  -20.348154  4.675042  -3.35453  -11.782311  3.970011  1.956293  1.692354  0.374541  0.448556  3.058901  -1.854529  0.78895  8.315133  -5.159112  1.921435  8.315133  -5.159112  1.921434  -9.151252  29.94853  -3.8225  173.125142  34.592038  -174.179058  3.260746  0.095924  105.72156  60.015219  14.081916  0.766404  -1.053296  1.256969  27.244579  70.075588  50.138825  22.11761  -25.295376  19.227658  -59.304417  68.038717  -13.413548  24.045884  -17.900856  6.22292  0.598294  -13.418507  4.654409  0.631925  
0.0  93.25843  0.0  -1.540887  -0.838264  -91.334255  11.351055  -15.021252  -0.020772  -2.549638  -0.178864  10.333083  1.770577  -0.294175  0.950298  -20.708434  4.745484  -3.28065  -11.973061  3.865988  1.923778  1.681675  0.3607  0.455441  3.119463  -1.857271  0.809401  8.479312  -5.170802  1.97219  8.479312  -5.170802  1.97219  -8.934597  29.779743  -3.95313  173.767848  34.549078  -175.14252  2.940261  1.822069  107.374596  57.417735  12.988203  -0.332871  -1.00466  1.1186  27.360837  70.036117  51.256773  21.928273  -22.920639  21.446927  -54.857876  66.642264  -15.189784  22.769637  -18.402563  6.129949  0.48911  -13.793626  4.587669  0.552385  
0.0  93.25843  0.0  -1.500824  -0.106193  -91.266697  10.944478  -14.985746  -0.187415  -2.757827  -0.173236  10.281041  1.771852  -0.29063  1.000715  -21.282309  4.865082  -3.328102  -12.264759  3.806636  1.870472  1.782212  0.354212  0.502734  3.146315  -1.838469  0.816175  8.552627  -5.121112  1.990956  8.552628  -5.121112  1.990956  -8.706437  29.524819  -4.041593  174.368874  34.421907  -176.023994  2.593428  3.879863  108.778852  54.839831  11.73539  -1.443302  -0.693636  0.872543  27.627288  69.331061  52.598706  21.347718  -19.720606  23.157844  -50.162945  65.149441  -16.608118  21.466428  -18.750663  6.06499  0.475063  -14.054541  4.539236  0.543373  
0.0  93.25843  0.0  -1.548481  0.305653  -91.242803  10.947258  -15.060556  -0.22355  -2.884088  -0.172935  10.250224  1.662047  -0.304559  0.979616  -21.538987  4.867767  -3.276127  -12.426513  3.796428  1.857986  1.765041  0.348001  0.509463  3.239785  -1.844106  0.822456  8.807989  -5.139878  2.000022  8.807989  -5.139878  2.000022  -8.594289  29.408989  -4.001382  175.05312  34.37459  -176.806559  2.262317  6.187425  110.050482  52.369126  10.263465  -2.460778  -0.683102  0.680445  27.76573  68.740935  53.776518  20.75082  -16.180512  24.151541  -45.381251  63.965889  -17.6041  20.201445  -19.282821  6.022102  0.427973  -14.452974  4.508395  0.512032  
0.0  93.25843  0.0  -1.542975  0.964306  -91.116677  10.314028  -14.996799  -0.561287  -3.098515  -0.185114  10.229012  1.769311  -0.269665  1.122589  -22.176991  4.873735  -3.428336  -12.828909  3.763877  1.843107  1.953725  0.366443  0.56589  3.277122  -1.834705  0.804528  8.911786  -5.112861  1.949319  8.911786  -5.112861  1.949319  -8.434429  29.186452  -3.880921  175.670441  34.17101  -177.533193  1.858344  8.593317  111.066799  50.153664  8.561275  -3.116348  -0.21939  0.326998  28.128048  67.602066  54.982645  19.712082  -12.426373  24.520661  -40.482462  63.190928  -18.392037  19.098525  -19.696369  6.014474  0.431261  -14.762909  4.502502  0.518378  
0.0  93.25843  0.0  -1.578395  1.238678  -91.105167  10.344708  -15.026251  -0.563453  -3.292533  -0.194403  10.20838  1.702967  -0.272201  1.110517  -22.329313  4.829105  -3.431677  -12.961561  3.838925  1.909823  1.940465  0.377039  0.576061  3.363284  -1.846727  0.809248  9.147163  -5.148593  1.953804  9.147163  -5.148594  1.953803  -8.382527  29.079596  -3.759396  176.621099  33.967505  -178.205408  1.676213  10.938216  112.000636  48.117301  6.622665  -3.45679  -0.069247  0.080987  28.332596  66.886652  56.158453  18.839365  -8.500202  24.324363  -35.543793  62.969383  -18.980278  18.009533  -20.136764  6.036801  0.385778  -15.092361  4.520707  0.489386  
